<svg width="1160" height="1030" viewBox="0 0 1160 1030" fill="none" xmlns="http://www.w3.org/2000/svg">
<g filter="url(#filter0_f_1_4)">
<path d="M-659.22 965.558C-488.508 791.5 -319.6 615.548 -143.296 445.005C-126.643 428.896 -109.664 412.996 -92.2932 397.429C-85.6403 391.467 -77.4525 381.211 -70.2849 381.735C-62.2903 382.319 -121.761 502.09 -124.007 506.703C-184.209 630.37 -249.305 754.567 -302.943 878.341C-319.436 916.402 -335.392 955.396 -344.437 992.847C-345.761 998.328 -354.892 1034.47 -334.503 1014.9C-227.862 912.515 -135.307 801.658 -26.3131 700.003C69.2358 610.889 167.729 517.819 272.121 436.39C303.705 411.754 309.747 418.08 293.73 449.37C247.474 539.732 166.633 630.677 103.514 717.491C29.8291 818.838 -48.6081 922.966 -102.322 1028.13C-115.213 1053.37 -129.594 1081.12 -135.775 1106.27C-138.99 1119.35 -105.505 1089.92 -92.9051 1078.69C99.2909 907.336 293.486 740.357 495.328 577.79C616.687 480.045 737.925 377.153 865.361 286.279C886.615 271.122 870.523 311.508 868.948 317.837C850.703 391.155 808.718 468.29 761.448 541.168C680.076 666.623 597.537 791.883 515.219 916.966" stroke="#D2F091" stroke-width="50" stroke-linecap="round"/>
</g>
<defs>
<filter id="filter0_f_1_4" x="-942.021" y="0.124329" width="2101.08" height="1392.23" filterUnits="userSpaceOnUse" color-interpolation-filters="sRGB">
<feFlood flood-opacity="0" result="BackgroundImageFix"/>
<feBlend mode="normal" in="SourceGraphic" in2="BackgroundImageFix" result="shape"/>
<feGaussianBlur stdDeviation="128.9" result="effect1_foregroundBlur_1_4"/>
</filter>
</defs>
</svg>
