<svg width="541" height="564" viewBox="0 0 541 564" fill="none" xmlns="http://www.w3.org/2000/svg">
<g filter="url(#filter0_i_1_160)">
<g clip-path="url(#clip0_1_160)">
<path d="M406.181 112.597C401.049 112.097 396.319 116.648 397.609 120.633C398.135 122.456 400.049 124.464 401.763 125.292C403.478 126.12 408.231 128.229 412.144 129.857C431.159 138.294 451.754 154.89 470.929 177.524C474.305 181.433 478.379 185.081 480.037 185.471C483.203 186.216 487.673 183.444 488.612 180.126C489.212 177.576 481.552 166.855 471.744 156.477C467.916 152.462 463.611 147.768 462.117 146.001C460.505 144.064 459.187 142.904 459.124 143.173C459.029 143.575 455.758 141.248 452.042 138.109C437.837 126.131 414.788 113.205 406.181 112.597Z" fill="url(#paint0_linear_1_160)" fill-opacity="0.7"/>
<path d="M259.208 79.7638C251.664 78.6972 243.422 77.8913 240.971 78.1644C238.37 78.4021 236.561 77.9766 236.561 77.9766C236.656 77.5741 232.961 78.4041 232.961 78.4041C232.961 78.4041 220.428 78.4401 219.509 78.7798C218.59 79.1194 218.788 79.1637 217.265 79.5263C215.743 79.889 211.898 81.3788 206.902 82.3276C201.907 83.2763 195.666 84.7819 193.058 85.7259C190.299 86.6344 188.332 86.8797 188.458 86.3431C188.585 85.8064 187.189 86.3277 185.517 87.3503C183.662 88.4715 177.836 90.9239 172.619 92.8118C162.67 96.5599 139.31 108.622 136.316 111.883C133.662 114.373 136.716 120.33 141.238 121.394C143.65 121.961 149.596 119.679 159.987 114.052C191.312 97.2085 230.587 89.1728 257.465 93.9374C264.161 95.2292 270.46 95.6248 272.101 95.9642C273.743 96.3036 276.154 97.5302 276.75 96.4913C277.346 95.4523 277.122 95.5876 277.122 95.5876C277.122 95.5876 277.317 94.2393 277.325 93.37C277.368 88.8365 278.085 86.7625 277.56 84.93C277.036 83.0975 274.265 82.0311 273.813 81.9247C273.329 81.9525 266.871 81 259.208 79.7638Z" fill="url(#paint1_linear_1_160)" fill-opacity="0.5"/>
<path d="M366.479 115.01C365.28 115.458 364.411 116.364 364.411 116.364C364.411 116.364 359.969 122.399 362.352 125.791C363.274 127.283 366.219 128.966 368.631 129.534C375.716 131.2 406.208 146.301 417.346 153.735C429.324 161.65 443.427 174.736 455.462 189.177C466.154 201.887 480.127 224.996 482.367 233.735C484.112 240.517 493.641 242.616 493.641 242.616C493.641 242.616 495.524 243.127 496.512 242.584C497.84 241.853 497.581 241.419 497.998 238.969C498.447 236.384 497.115 230.549 494.753 225.038C492.628 219.866 491.643 214.524 491.535 214.37C491.427 214.215 491.027 213.825 491.027 213.825C491.027 213.825 488.296 211.909 486.697 208.559C482.165 199.423 464.448 175.999 453.766 165.275C438.24 149.446 419.664 136.44 397.95 125.952C387.363 120.913 367.678 114.563 366.479 115.01Z" fill="url(#paint2_linear_1_160)" fill-opacity="0.5"/>
<path d="M288.127 99.1291C286.763 99.5163 277.522 98.9001 267.622 97.7042C245.315 95.1475 227.597 96.0772 208.178 100.855C177.128 108.418 152.625 119.928 127.902 138.466C114.597 148.363 113.742 149.295 114.825 152.806C116.911 158.818 123.161 159.297 130.801 153.873C134.391 151.461 138.654 148.216 140.452 146.657C146.886 140.949 171.346 127.588 184.57 122.77C214.022 111.857 236.266 108.594 261.532 111.422C290.026 114.726 298.98 113.859 300.337 108.089C300.842 105.943 300.624 103.485 299.79 102.297C298.121 99.9225 291.822 98.2992 288.127 99.1291Z" fill="url(#paint3_linear_1_160)" fill-opacity="0.7"/>
<path d="M333.475 121.406C329.931 122.271 327.901 128.873 330.323 131.425C332.921 134.585 341.071 138.484 357.751 144.673C399.388 160.413 421.863 176.46 444.617 206.874C453.357 218.416 465.019 239.849 464.293 242.934C464.136 243.605 464.879 247.886 466.042 252.407C467.206 256.929 468.012 260.941 467.918 261.344C467.823 261.746 468.191 264.24 468.86 266.804C470.392 273.819 471.033 285.854 471.923 286.922C472.814 287.991 479.51 289.84 482.539 289.136C485.718 288.468 485.876 287.797 486.297 275.861C486.28 274.583 485.786 272.626 485.284 271.375C484.752 270.259 483.77 265.639 483.21 261.259C480.318 239.058 471.457 218.567 455.145 196.607C431.469 164.703 404.16 145.536 361.517 130.692C353.566 127.972 345.139 124.574 342.583 123.265C336.9 120.371 337.051 120.406 333.475 121.406Z" fill="url(#paint4_linear_1_160)" fill-opacity="0.5"/>
<path d="M300.125 117.101C297.009 117.501 287.102 117.011 278.106 116.028C253.292 113.307 235.305 114.031 214.768 118.829C177.873 127.566 146.661 145.285 126.053 169.322C107.251 191.094 103.699 198.754 110.945 202.44C115.516 204.648 120.47 201.849 124.958 194.268C143.883 163.18 181.837 139.118 223.889 131.452C243.174 127.917 254.873 127.554 273.737 129.867C304.794 133.774 321.121 129.969 313.661 120.427C310.976 116.963 307.358 116.112 300.125 117.101Z" fill="url(#paint5_linear_1_160)" fill-opacity="0.7"/>
<path d="M315.704 136.765C314.158 137.251 304.282 136.627 293.779 135.29C283.245 134.086 268.57 132.9 261.138 132.709C236.668 131.909 206.013 139.141 182.138 151.365C160.388 162.673 146.943 174.519 131.647 196.266C127.387 202.202 120.887 211.575 117.087 216.911C113.286 222.247 109.938 227.689 109.654 228.897C108.96 231.848 113.787 235.674 118.379 235.763C122.337 235.845 121.696 236.543 139.359 210.823C157.94 183.902 165.292 176.995 187.961 164.486C212.786 150.928 242.886 144.699 270.69 147.557C276.909 148.17 288.744 149.255 296.836 150.026C304.958 150.662 314.136 151.546 317.095 151.818C327.209 152.781 341.881 157.364 360.086 165.186C380.608 173.978 393.197 181.328 404.25 191.149C426.118 210.451 437.728 228.049 444.142 251.504C449.242 270.402 453.332 299.682 452.561 310.403C451.74 319.979 457.565 327.522 462.835 323.381C465.002 322.562 465.497 322.605 466.439 321.738C467.783 320.292 467.491 319.295 467.502 315.191C467.512 311.088 467.926 305.946 468.431 303.8C468.817 301.483 468.631 298.891 468.631 298.891C468.631 298.891 467.044 291.438 466.097 283.287C465.27 275.305 463.784 266.743 463.052 264.447C462.501 262.052 462.638 259.194 462.638 259.194L462.393 257.779L461.993 255.42C461.993 255.42 461.524 253.624 461.514 253.431C461.505 253.239 459.042 248.354 456.756 241.162C453.451 230.19 450.605 224.706 439.608 209.235C419.703 180.908 403.634 168.067 369.334 152.919C351.042 144.794 320.128 135.54 315.704 136.765Z" fill="url(#paint6_linear_1_160)" fill-opacity="0.5"/>
<path d="M304.716 153.72C300.425 153.702 290.581 152.944 283.037 151.877C241.54 146.364 191.098 161.968 163.903 188.986C160.394 192.408 151.913 203.44 145.073 213.583C131.487 233.466 125.958 239.387 117.453 243.758C106.427 249.376 110.199 259.042 122.459 256.97C129.905 255.748 144.679 240.958 156.617 222.669C168.032 205.249 177.109 195.066 188.822 187.202C206.471 175.07 236.662 165.747 257.364 165.661C261.805 165.715 266.16 165.464 267.071 164.971C268.102 164.647 275.289 165.205 283.015 166.173C290.893 167.176 301.855 167.914 307.233 168.046C317.718 168.105 327.271 170.777 347.285 179.024C379.878 192.637 404.666 213.051 416.433 236.066C423.518 249.909 430.184 284.467 430.054 306.666C430.162 310.939 431.992 321.422 434.414 330.063C437.8 342.045 439.693 346.171 442.28 347.346C444.113 348.344 446.425 348.412 446.425 348.412C446.425 348.412 449.465 348.403 450.225 348.401C450.984 348.399 452.126 347.777 452.507 347.317C452.889 346.856 452.938 346.406 453.144 345.795C453.716 344.104 454.034 344.931 453.733 341.262C453.433 337.592 445.419 314.386 445.44 306.179C445.361 286.904 440.159 256.939 433.776 239.438C429.216 227.038 419.569 212.592 408.466 201.627C391.201 184.398 377.056 175.549 350.9 165.008C332.029 157.313 316.233 153.455 304.716 153.72Z" fill="url(#paint7_linear_1_160)" fill-opacity="0.5"/>
<path d="M302.216 171.114C297.893 171.23 290.373 170.735 285.756 170.074C258.229 166.714 231.561 171.202 207.353 183.49C179.198 197.681 162.678 217.865 149.201 254.198C142.308 272.683 136.67 280.418 124.789 286.968C116.704 291.58 115.263 293.648 118.275 297.754C121.223 302.129 126.268 302.325 133.44 298.207C148.333 289.675 155.769 280.38 162.796 260.653C169.324 242.366 178.773 225.191 188.064 214.775C193.259 208.917 199.195 204.65 211.56 198.072C235.774 185.078 257.065 180.457 279.063 183.65C285.703 184.503 295.999 185.368 302.345 185.444C313.314 185.476 314.219 185.689 330.867 192.012C359.95 202.958 385.093 221.19 394.505 237.988C401.54 250.687 406.766 275.136 408.164 301.659C408.595 309.972 410.011 319.509 411.276 322.921C412.391 326.298 415.29 335.617 417.568 343.516C419.846 351.414 422.609 359.285 423.53 360.776C426.917 366.67 435.481 365.428 436.996 358.988C437.28 357.78 434.364 347.183 430.462 335.363C425.04 318.513 423.484 310.926 423.274 301.673C423.159 285.93 416.419 249.655 411.599 239.035C404.09 222.261 388.389 205.825 367.814 193.198C349.192 181.738 317.056 170.923 302.216 171.114Z" fill="url(#paint8_linear_1_160)" fill-opacity="0.7"/>
<path d="M295.997 188.765C282.307 188.802 279.548 189.71 278.349 194.809C276.865 201.114 281.707 203.527 296.389 204.007C323.944 204.542 358.461 222.147 372.43 242.565C381.664 256.064 385.477 273.669 387.134 310.588C387.235 315.568 389.149 323.663 391.185 328.532C393.19 333.534 395.858 341.807 397.134 347.205C399.98 358.776 410.405 380.06 413.721 380.84C423.068 383.038 426.682 375.11 420.642 365.619C414.189 355.181 401.661 314.43 401.711 303.398C401.592 291.052 398.624 270.531 394.87 256.055C391.109 242.286 379.912 225.635 367.86 216.004C348.789 201.041 316.817 188.849 295.997 188.765Z" fill="url(#paint9_linear_1_160)" fill-opacity="0.7"/>
<path d="M241.184 191.164C226.611 194.957 209.664 203.431 199.879 211.89C185.918 223.898 179.92 234.522 167.02 270.425C163.819 279.3 161.239 283.507 154.118 291.46C144.614 302.109 141.999 303.759 128.901 308.041C120.14 310.794 118.177 313.731 121.728 318.247C125.04 322.425 127.095 322.483 139.035 319.062C150.675 315.57 155.334 311.993 168.751 296.884C176.513 288.232 177.684 285.959 182.33 271.619C193.487 237.713 203.724 223.272 224.436 212.994C231.119 209.61 241.583 205.7 247.459 204.392C256.181 202.479 258.702 201.231 259.666 198.485C260.536 196.141 260.042 194.184 257.977 192.141C253.998 188.09 253.363 188.082 241.184 191.164Z" fill="url(#paint10_linear_1_160)" fill-opacity="0.7"/>
<path d="M288.23 206.902C280.609 207.517 270.148 208.029 264.921 207.933C243.132 207.905 221.768 216.897 209.357 231.11C202.142 239.466 193.748 256.889 190.719 269.769C187.689 282.649 183.233 290.096 169.206 305.769C156.248 320.279 149.948 324.743 136.738 328.149C127.739 330.563 126.687 339.094 135.241 341.956C138.915 343.245 141.579 342.739 148.412 339.39C162.379 332.765 170.439 327.581 174.51 322.45C176.56 319.818 182.556 312.591 187.814 306.465C197.905 294.68 203.118 284.012 206.961 268.35C209.833 256.141 218.657 240.943 226.794 234.079C238.252 224.597 247.125 222.72 286.298 221.881C290.287 221.828 294.522 221.408 295.767 220.852C301.864 218.604 330.607 230.321 343.802 240.504C347.311 243.17 352.124 248.408 354.532 252.373C361.733 263.694 363.65 274.481 364.143 306.879C364.395 317.982 366.245 326.347 370.364 334.536C371.819 337.144 374.549 345.149 376.533 352.27C380.62 366.682 384.024 373.854 392.9 386.845C399.242 396.407 401.916 397.885 406.719 395.051C411.522 392.216 411.47 388.381 406.79 381.9C400.378 373.312 393.785 358.735 389.61 344.019C387.626 336.898 384.801 329.295 383.434 326.991C380.191 321.839 379.392 317.121 379.445 302.691C379.563 263.64 371.819 243.129 350.908 227.875C338.968 219.12 327.421 213.43 313.17 209.087C303.347 206.21 300.388 205.939 288.23 206.902Z" fill="url(#paint11_linear_1_160)" fill-opacity="0.7"/>
<path d="M279.766 225.3C270.003 225.552 258.511 226.389 254.181 227.211C240.011 229.967 225.605 241.162 219.158 254.371C217.955 256.778 214.596 266.324 211.665 275.404C207.044 290.316 205.533 293.359 198.097 302.654C193.535 308.519 188.603 315.288 187.098 317.624C179.571 330.012 165.274 339.392 145.27 345.306C134.329 348.538 132.348 350.196 133.655 355.459C135.369 362.375 144.681 362.017 161.375 354.616C181.986 345.447 191.21 338.697 198.635 327.417C200.939 323.711 205.84 317.077 209.388 312.814C217.894 302.355 220.456 296.869 227.252 276.097C230.467 265.809 234.397 256.539 236.417 254.041C244.066 244.513 256.109 239.983 273.21 240.324C277.652 240.378 283.79 239.981 286.938 239.447C295.265 237.866 313.077 242.622 323.047 248.931C337.732 258.191 342.72 270.125 341.846 294.131C341.246 308.856 343.973 326.347 348.754 337.807C350.791 342.676 353.872 351.896 355.831 358.445C360.157 373.196 363.799 380.708 374.995 397.359C384.078 410.822 386.357 412.632 391.938 410.547C397.884 408.264 397.092 402.839 389.376 391.679C379.754 377.806 373.058 364.338 369.29 351.275C367.506 345.333 364.744 337.462 363.058 333.809C358.683 324.002 356.429 310.587 356.991 296.702C357.563 278.713 356.642 271.134 352.004 260.415C347.342 249.124 340.043 241.602 326.487 234.307C313.533 227.155 301.046 224.784 279.766 225.3Z" fill="url(#paint12_linear_1_160)" fill-opacity="0.7"/>
<path d="M285.032 242.822C255.233 243.034 243.646 250.361 235.585 273.809C226.497 300.273 219.78 313.276 214.57 314.458C211.359 315.26 209.858 320.287 211.884 323.171C214.03 326.224 219.281 326.893 223.593 324.792C231.916 320.52 240.828 305.626 247.725 283.744C251.81 271.113 253.63 267.434 257.29 264.048C267.201 255.052 298.689 255.096 312.169 264.071C318.742 268.591 320.733 275.006 319.687 288.919C318.361 306.73 321.975 329.243 328.362 343.347C330.461 347.947 333.511 357.301 335.256 364.083C338.979 378.693 345.268 390.508 359.872 410.934C370.304 425.422 373.329 428.116 375.952 425.76C376.744 425.097 377.712 425.041 378.252 425.451C378.76 425.995 379.805 424.259 380.587 421.611C382.049 417.424 381.071 415.495 368.205 396.47C356.262 378.935 353.742 374.095 350.682 362.756C348.61 355.331 345.115 345.164 342.84 339.956C337.312 327.612 333.766 307.522 334.66 293.573C335.751 278.114 334.623 270.061 330.044 262.471C322.764 250.139 305.733 242.735 285.032 242.822Z" fill="url(#paint13_linear_1_160)" fill-opacity="0.7"/>
<path d="M286.57 261.307C275.331 261.07 266.633 263.555 261.991 268.41C260.462 270.174 257.402 277.1 255.189 283.801C249.762 300.789 246.803 306.606 233.851 326.497C220.623 346.889 211.925 355.463 193.839 366.075C181.681 373.127 159.261 381.87 155.492 380.984C152.176 380.204 147.478 384.621 147.594 388.188C147.87 393.775 151.895 396.279 158.405 394.978C169.942 392.595 188.534 385.924 198.743 380.396C220.864 368.184 232.216 357.12 248.61 331.384C260.184 313.293 265.983 301.489 268.602 290.354C270.653 281.633 275.958 273.96 278.443 276.244C279.102 276.824 281.64 276.855 283.884 276.108C286.128 275.362 290.117 275.309 292.68 275.912C298.408 277.259 299.015 280.092 297.177 294.668C295.676 305.784 297.755 312.502 302.88 313.708C308.759 315.091 310.421 312.083 312.185 295.791C313.055 287.359 313.266 278.347 312.628 275.648C310.696 266.274 302.402 261.632 286.57 261.307Z" fill="url(#paint14_linear_1_160)" fill-opacity="0.7"/>
<path d="M280.234 281.479C278.355 282.028 276.931 285.375 274.287 295.938C271.423 307.441 269.659 311.557 263.524 320.733C259.415 326.705 254.562 334.483 252.774 338.027C248.003 346.816 230.007 366.512 219.563 374.391C214.57 378.031 206.027 383.242 200.288 385.998C190.023 391.088 167.403 398.652 160.718 399.345C155.182 399.884 152.707 405.673 156.202 409.752C160.086 414.205 164.44 413.955 182.478 408.286C217.886 397.076 245.954 376.492 262.632 349.549C265.735 344.474 271.782 334.994 275.986 328.62C282.002 319.275 284.351 314.022 287.795 302.089C292.367 286.032 292.006 282.832 285.976 281.414C284.318 281.024 281.629 280.958 280.234 281.479Z" fill="url(#paint15_linear_1_160)" fill-opacity="0.7"/>
<path d="M126.133 258.259C124.556 258.879 121.989 261.673 120.541 264.448C119.093 267.222 117.004 270.695 116.173 272.199C113.87 275.904 118.279 282.18 123.117 281.903C127.289 281.751 128.811 280.693 132.222 274.982C136.124 268.538 136.713 264.004 134.267 260.88C131.581 257.416 129.955 256.892 126.133 258.259Z" fill="url(#paint16_linear_1_160)" fill-opacity="0.7"/>
<path d="M290.437 328.055C283.856 330.33 277.724 336.109 274.481 343.133C273.184 345.943 268.735 352.684 264.57 358.217C242.833 386.378 214.145 405.541 182.491 412.962C162.256 417.831 158.056 420.807 162.95 427.055C165.754 430.688 170.427 431.788 177.239 430.558C188.11 428.301 218.569 416.492 227.508 410.949C250.77 396.598 275.43 372.241 285.987 353.061C291.621 342.634 294.727 340.25 300.788 341.534C305.612 342.668 310.937 351.142 310.604 357.293C310.141 367.379 319.875 388.217 334.837 409.151C342.615 420.042 348.743 429.837 348.491 430.911C348.238 431.984 349.121 434.316 350.464 436.047C352.553 438.663 353.577 439.045 357.511 438.554C361.777 438 362.387 437.436 363.039 432.634C364.021 425.077 360.267 416.69 350.735 405.811C336.843 389.801 326.004 367.57 325.949 354.956C325.91 349.708 318.184 336.564 312.666 332.293C306.91 327.682 296.835 325.879 290.437 328.055Z" fill="url(#paint17_linear_1_160)" fill-opacity="0.7"/>
<path d="M205.809 329.387C204.834 330.149 202.173 333.346 199.814 336.614C194.208 344.216 172.293 356.901 156.594 361.421C144.138 365.004 139.994 368.418 141.999 373.421C142.619 374.841 145.08 376.553 147.731 377.459C153.785 379.45 165.947 375.089 187.371 363.138C206.393 352.604 219.029 340.143 217.006 333.862C215.597 329.707 209.066 327.038 205.809 329.387Z" fill="url(#paint18_linear_1_160)" fill-opacity="0.7"/>
<path d="M292.528 357.714C287.431 359.771 287.343 365.556 292.163 370.088C299.556 377.207 308.977 368.945 303.017 360.464C300.038 356.224 297.626 355.656 292.528 357.714Z" fill="url(#paint19_linear_1_160)" fill-opacity="0.7"/>
<path d="M300.91 380.924C299.087 381.911 297.464 384.077 297.085 385.687C296.201 389.444 308.243 409.267 318.402 420.86C326.71 430.177 330.671 439.037 329.251 445.075C328.431 448.563 332.294 455.135 335.761 455.951C338.323 456.553 344.886 453 345.423 450.719C345.612 449.914 345.153 444.426 344.242 438.831C342.507 427.945 338.707 421.105 327.198 408.487C323.672 404.542 318.578 397.114 315.939 392.104C313.299 387.094 310.747 382.388 309.969 381.638C307.816 379.291 304.072 378.977 300.91 380.924Z" fill="url(#paint20_linear_1_160)" fill-opacity="0.7"/>
<path d="M273.428 382.106C271.693 383.396 270.133 385.295 269.944 386.1C269.754 386.905 268.503 388.168 267.076 388.823C265.68 389.345 258.921 394.41 252.218 399.912C230.555 417.613 212.006 426.134 181.604 432.293C175.911 433.502 170.512 435.489 169.744 436.724C167.78 439.66 169.302 444.69 172.818 446.65C179.16 450.124 213.523 440.65 234.726 429.638C249.097 421.974 283.977 394.073 285.144 389.109C286.817 381.998 279.125 377.499 273.428 382.106Z" fill="url(#paint21_linear_1_160)" fill-opacity="0.7"/>
<path d="M283.415 401.87C281.052 402.447 273.048 408.068 265.704 414.27C258.327 420.605 249.342 427.695 245.72 430.241C237.383 435.926 218.182 443.162 201.07 446.924C189.137 449.639 184.492 451.803 183.64 455.425C183.103 457.706 187.019 462.025 190.184 462.77C199.078 464.862 233.964 454.52 251.259 444.57C258.249 440.551 267.116 433.292 284.775 417.056C286.24 415.561 287.082 416.042 289.735 419.639C291.586 421.915 296.526 426.617 300.662 429.997C304.799 433.377 307.296 432.219 308.308 436.043C309.32 439.866 307.263 443.867 307.263 443.867C306.148 452.667 308.072 456.659 318.102 466.098C323.073 470.665 325.714 470.569 327.57 471.157C329.427 471.744 331.378 471.203 331.378 471.203C331.378 471.203 332.542 469.636 333.387 466.72C334.975 461.996 334.681 461.219 329.471 456.312C326.327 453.449 323.571 450.96 323.333 450.621C323.063 450.416 322.947 446.849 323.228 442.95C323.772 433.875 319.797 426.427 310.626 418.748C306.64 415.403 302.518 410.611 301.214 408.039C299.527 404.385 297.908 403.155 293.536 402.127C290.49 401.552 285.929 401.328 283.415 401.87Z" fill="url(#paint22_linear_1_160)" fill-opacity="0.5"/>
<path d="M287.726 430.211C281.251 434.068 283.617 442.27 291.757 444.185C299.596 446.029 304.585 439.698 300.175 433.422C297.195 429.181 291.649 427.735 287.726 430.211Z" fill="url(#paint23_linear_1_160)" fill-opacity="0.7"/>
<path d="M269.236 441.861C267.389 442.276 265.829 444.174 265.261 446.589C264.124 451.419 269.421 456.629 279.357 460.382C283.03 461.671 289.046 464.502 292.713 466.497C298.182 469.624 299.437 471.052 299.878 475.262C300.632 481.528 305.547 485.657 309.978 483.726C314.925 481.633 316.562 478.054 314.897 472.282C311.767 461.917 302.842 453.871 287.312 447.528C282.074 445.447 276.567 443.16 275.003 442.368C273.44 441.575 270.782 441.375 269.236 441.861Z" fill="url(#paint24_linear_1_160)" fill-opacity="0.7"/>
<path d="M253.464 450.752C251.497 450.998 245.677 452.744 240.58 454.801C235.514 456.725 225.968 459.435 219.577 460.905C210.006 463.043 207.699 464.058 206.672 467.073C204.53 472.799 206.889 475.619 214.679 476.319L221.35 477.038L218.594 480.638C216.694 483.306 216.347 484.782 217.357 486.577C219.972 491.015 224.073 491.838 232.287 489.381C236.712 488.156 243.071 486.82 246.339 486.456C252.056 485.818 252.961 486.031 257.851 489.588C262.98 493.485 263.131 493.52 267.292 491.384C270.177 489.939 271.555 488.139 271.734 485.35C272.102 481.755 271.237 480.702 263.275 475.997L254.322 470.777L242.055 473.555C235.331 475.088 229.336 476.227 228.884 476.12C226.924 475.659 243.065 469.262 249.242 468.024C255.237 466.886 255.689 466.992 262.206 471.074C282.749 483.835 287.026 485.265 291.843 481.018C293.887 479.092 294.171 477.884 293.358 474.578C292.426 471.102 290.385 469.631 280.854 464.841C274.599 461.67 267.36 457.278 264.875 454.994C259.872 450.561 258.849 450.178 253.464 450.752Z" fill="url(#paint25_linear_1_160)" fill-opacity="0.7"/>
</g>
</g>
<defs>
<filter id="filter0_i_1_160" x="0.0205078" y="0" width="540.551" height="567.718" filterUnits="userSpaceOnUse" color-interpolation-filters="sRGB">
<feFlood flood-opacity="0" result="BackgroundImageFix"/>
<feBlend mode="normal" in="SourceGraphic" in2="BackgroundImageFix" result="shape"/>
<feColorMatrix in="SourceAlpha" type="matrix" values="0 0 0 0 0 0 0 0 0 0 0 0 0 0 0 0 0 0 127 0" result="hardAlpha"/>
<feOffset dy="4"/>
<feGaussianBlur stdDeviation="2"/>
<feComposite in2="hardAlpha" operator="arithmetic" k2="-1" k3="1"/>
<feColorMatrix type="matrix" values="0 0 0 0 0 0 0 0 0 0 0 0 0 0 0 0 0 0 0.25 0"/>
<feBlend mode="normal" in2="shape" result="effect1_innerShadow_1_160"/>
</filter>
<linearGradient id="paint0_linear_1_160" x1="436.91" y1="175.327" x2="449.319" y2="122.571" gradientUnits="userSpaceOnUse">
<stop stop-color="#666666"/>
<stop offset="0.784" stop-color="white"/>
<stop offset="1" stop-color="#666666"/>
</linearGradient>
<linearGradient id="paint1_linear_1_160" x1="199.063" y1="134.958" x2="214.811" y2="68.0089" gradientUnits="userSpaceOnUse">
<stop stop-color="#666666"/>
<stop offset="0.489" stop-color="white"/>
<stop offset="1" stop-color="#666666"/>
</linearGradient>
<linearGradient id="paint2_linear_1_160" x1="418.664" y1="226.164" x2="440.796" y2="132.07" gradientUnits="userSpaceOnUse">
<stop stop-color="#666666"/>
<stop offset="0.484" stop-color="white"/>
<stop offset="1" stop-color="#666666"/>
</linearGradient>
<linearGradient id="paint3_linear_1_160" x1="196.551" y1="175.562" x2="218.65" y2="81.611" gradientUnits="userSpaceOnUse">
<stop stop-color="#666666"/>
<stop offset="0.784" stop-color="white"/>
<stop offset="1" stop-color="#666666"/>
</linearGradient>
<linearGradient id="paint4_linear_1_160" x1="392.736" y1="269.227" x2="422.893" y2="141.02" gradientUnits="userSpaceOnUse">
<stop stop-color="#666666"/>
<stop offset="0.485" stop-color="white"/>
<stop offset="1" stop-color="#666666"/>
</linearGradient>
<linearGradient id="paint5_linear_1_160" x1="196.862" y1="222.838" x2="226.289" y2="97.7336" gradientUnits="userSpaceOnUse">
<stop stop-color="#666666"/>
<stop offset="0.784" stop-color="white"/>
<stop offset="1" stop-color="#666666"/>
</linearGradient>
<linearGradient id="paint6_linear_1_160" x1="286.302" y1="283.546" x2="320.772" y2="136.999" gradientUnits="userSpaceOnUse">
<stop stop-color="#666666"/>
<stop offset="0.484" stop-color="white"/>
<stop offset="1" stop-color="#666666"/>
</linearGradient>
<linearGradient id="paint7_linear_1_160" x1="279.979" y1="309.429" x2="316.455" y2="154.352" gradientUnits="userSpaceOnUse">
<stop stop-color="#666666"/>
<stop offset="0.479" stop-color="white"/>
<stop offset="1" stop-color="#666666"/>
</linearGradient>
<linearGradient id="paint8_linear_1_160" x1="274.515" y1="336.671" x2="313.207" y2="172.17" gradientUnits="userSpaceOnUse">
<stop stop-color="#666666"/>
<stop offset="0.784" stop-color="white"/>
<stop offset="1" stop-color="#666666"/>
</linearGradient>
<linearGradient id="paint9_linear_1_160" x1="332.929" y1="361.836" x2="369.99" y2="204.272" gradientUnits="userSpaceOnUse">
<stop stop-color="#666666"/>
<stop offset="0.784" stop-color="white"/>
<stop offset="1" stop-color="#666666"/>
</linearGradient>
<linearGradient id="paint10_linear_1_160" x1="172.032" y1="332.196" x2="208.202" y2="178.419" gradientUnits="userSpaceOnUse">
<stop stop-color="#666666"/>
<stop offset="0.784" stop-color="white"/>
<stop offset="1" stop-color="#666666"/>
</linearGradient>
<linearGradient id="paint11_linear_1_160" x1="267.382" y1="373.119" x2="306.387" y2="207.287" gradientUnits="userSpaceOnUse">
<stop stop-color="#666666"/>
<stop offset="0.784" stop-color="white"/>
<stop offset="1" stop-color="#666666"/>
</linearGradient>
<linearGradient id="paint12_linear_1_160" x1="262.246" y1="389.23" x2="300.742" y2="225.569" gradientUnits="userSpaceOnUse">
<stop stop-color="#666666"/>
<stop offset="0.784" stop-color="white"/>
<stop offset="1" stop-color="#666666"/>
</linearGradient>
<linearGradient id="paint13_linear_1_160" x1="287.407" y1="406.158" x2="324.185" y2="249.796" gradientUnits="userSpaceOnUse">
<stop stop-color="#666666"/>
<stop offset="0.784" stop-color="white"/>
<stop offset="1" stop-color="#666666"/>
</linearGradient>
<linearGradient id="paint14_linear_1_160" x1="214.417" y1="409.538" x2="251.554" y2="251.651" gradientUnits="userSpaceOnUse">
<stop stop-color="#666666"/>
<stop offset="0.784" stop-color="white"/>
<stop offset="1" stop-color="#666666"/>
</linearGradient>
<linearGradient id="paint15_linear_1_160" x1="204.95" y1="423.012" x2="240.757" y2="270.778" gradientUnits="userSpaceOnUse">
<stop stop-color="#666666"/>
<stop offset="0.784" stop-color="white"/>
<stop offset="1" stop-color="#666666"/>
</linearGradient>
<linearGradient id="paint16_linear_1_160" x1="122.844" y1="282.074" x2="128.675" y2="257.286" gradientUnits="userSpaceOnUse">
<stop stop-color="#666666"/>
<stop offset="0.784" stop-color="white"/>
<stop offset="1" stop-color="#666666"/>
</linearGradient>
<linearGradient id="paint17_linear_1_160" x1="256.563" y1="451.323" x2="286.51" y2="324.002" gradientUnits="userSpaceOnUse">
<stop stop-color="#666666"/>
<stop offset="0.784" stop-color="white"/>
<stop offset="1" stop-color="#666666"/>
</linearGradient>
<linearGradient id="paint18_linear_1_160" x1="172.318" y1="383.273" x2="186.485" y2="323.043" gradientUnits="userSpaceOnUse">
<stop stop-color="#666666"/>
<stop offset="0.784" stop-color="white"/>
<stop offset="1" stop-color="#666666"/>
</linearGradient>
<linearGradient id="paint19_linear_1_160" x1="294.968" y1="372.229" x2="298.612" y2="356.737" gradientUnits="userSpaceOnUse">
<stop stop-color="#666666"/>
<stop offset="0.784" stop-color="white"/>
<stop offset="1" stop-color="#666666"/>
</linearGradient>
<linearGradient id="paint20_linear_1_160" x1="313.601" y1="450.738" x2="329.051" y2="385.055" gradientUnits="userSpaceOnUse">
<stop stop-color="#666666"/>
<stop offset="0.784" stop-color="white"/>
<stop offset="1" stop-color="#666666"/>
</linearGradient>
<linearGradient id="paint21_linear_1_160" x1="216.877" y1="457.167" x2="237.295" y2="370.359" gradientUnits="userSpaceOnUse">
<stop stop-color="#666666"/>
<stop offset="0.784" stop-color="white"/>
<stop offset="1" stop-color="#666666"/>
</linearGradient>
<linearGradient id="paint22_linear_1_160" x1="254.617" y1="477.926" x2="273.552" y2="397.426" gradientUnits="userSpaceOnUse">
<stop stop-color="#666666"/>
<stop offset="0.475" stop-color="white"/>
<stop offset="1" stop-color="#666666"/>
</linearGradient>
<linearGradient id="paint23_linear_1_160" x1="291.282" y1="444.073" x2="294.734" y2="429.397" gradientUnits="userSpaceOnUse">
<stop stop-color="#666666"/>
<stop offset="0.784" stop-color="white"/>
<stop offset="1" stop-color="#666666"/>
</linearGradient>
<linearGradient id="paint24_linear_1_160" x1="286.304" y1="479.321" x2="293.985" y2="446.666" gradientUnits="userSpaceOnUse">
<stop stop-color="#666666"/>
<stop offset="0.784" stop-color="white"/>
<stop offset="1" stop-color="#666666"/>
</linearGradient>
<linearGradient id="paint25_linear_1_160" x1="244.69" y1="495.74" x2="255.441" y2="450.031" gradientUnits="userSpaceOnUse">
<stop stop-color="#666666"/>
<stop offset="0.784" stop-color="white"/>
<stop offset="1" stop-color="#666666"/>
</linearGradient>
<clipPath id="clip0_1_160">
<rect width="443.634" height="474.753" fill="white" transform="translate(108.723) rotate(13.2361)"/>
</clipPath>
</defs>
</svg>
