<svg width="322" height="16" viewBox="0 0 322 16" fill="none" xmlns="http://www.w3.org/2000/svg">
<path d="M-119 8C-119 12.4183 -115.418 16 -111 16C-106.582 16 -103 12.4183 -103 8C-103 3.58172 -106.582 3.86258e-07 -111 0C-115.418 -3.86258e-07 -119 3.58172 -119 8ZM306 8.00004C306 12.4183 309.582 16 314 16C318.418 16 322 12.4183 322 8.00004C322 3.58176 318.418 3.75409e-05 314 3.71547e-05C309.582 3.67684e-05 306 3.58176 306 8.00004ZM-111 8L-111 9.5L314 9.50004L314 8.00004L314 6.50004L-111 6.5L-111 8Z" fill="#666666"/>
</svg>
