<svg width="570" height="555" viewBox="0 0 570 555" fill="none" xmlns="http://www.w3.org/2000/svg">
<g filter="url(#filter0_i_1_71)">
<g filter="url(#filter1_i_1_71)">
<path d="M317.757 34.5641C319.987 34.9591 326.575 36.1441 332.454 37.0329C347.557 39.403 363.267 44.4395 378.572 51.7473C398.641 61.3265 411.311 69.9181 426.413 84.3363C434.218 91.6441 435.535 94.8043 431.785 96.7794C430.062 97.6681 428.846 96.9769 422.866 91.6441C412.73 82.46 405.838 76.9297 397.323 71.3995C385.87 63.9929 376.95 60.8327 376.95 60.8327C376.95 60.8327 376.655 60.5724 376.444 60.4377C369.957 56.312 374.139 58.3113 359.314 52.4386C347.253 47.9947 332.454 45.7233 332.454 45.7233L330.934 45.427C330.934 45.427 327.893 44.0445 323.535 43.3532C311.879 41.2794 279.647 41.5756 268.599 43.7482C254.003 46.7109 245.793 48.5872 244.779 49.3772C243.462 50.266 237.279 51.1548 237.38 50.4635C237.482 50.1673 237.076 49.081 236.671 47.9947C235.252 44.8345 237.482 43.0569 245.894 40.6868C261.402 36.3416 281.877 33.5765 298.499 33.6753C306.811 33.774 315.527 34.169 317.757 34.5641Z" fill="url(#paint0_linear_1_71)"/>
<path d="M222.988 51.8461C225.319 54.5125 223.495 56.7838 215.791 60.734C211.636 63.0054 206.771 65.7705 205.047 66.9555C203.324 68.1406 201.601 69.1281 201.196 69.1281C200.892 69.1281 197.243 71.4982 193.29 74.4609C164.403 95.6931 147.172 117.32 131.461 152.082C125.988 164.327 121.123 186.152 119.805 205.212C118.893 217.161 118.285 219.235 115.041 219.235C111.697 219.235 110.987 217.26 111.291 209.162C112.102 182.893 118.285 159.291 130.752 134.8C137.137 122.159 153.862 99.5445 153.862 99.5445L156.5 96L159.5 92.5L167.139 85.6201C167.139 85.6201 192.175 64.5854 206.973 56.5863C218.933 50.0685 220.961 49.476 222.988 51.8461Z" fill="url(#paint1_linear_1_71)"/>
<path d="M317.757 56.8826C331.846 58.6602 341.374 60.9315 352.32 64.783C404.317 83.0525 443.543 125.221 456.111 176.277C460.875 195.633 462.294 216.371 460.166 234.048C459.557 238.69 457.125 251.133 454.794 261.699L450.537 280.956L450.638 301.892C450.638 321.841 450.537 322.927 448.712 323.52C444.05 325.001 441.921 317.298 441.921 299.028C441.921 285.598 444.151 270.192 449.016 250.343C450.131 245.405 451.651 235.332 452.26 227.827C455.503 187.535 443.036 148.823 416.987 118.505C408.169 108.136 398.438 101.223 398.438 101.223L397.526 100.631C397.526 100.631 380.802 86.6077 369.045 80.6824C349.786 71.0045 331.339 65.8693 308.736 63.9929C294.04 62.8079 291.81 61.9191 293.735 57.7714C294.85 55.5 295.357 55.3025 301.236 55.4013C304.783 55.5 312.183 56.0926 317.757 56.8826Z" fill="url(#paint2_linear_1_71)"/>
<path d="M279.545 57.8701C284.005 60.8327 281.674 63.7953 273.971 65.0792C254.206 68.4368 235.759 74.2633 222.177 81.4724C210.723 87.6939 204.499 92.5 202.499 94C201.999 94.5 201.499 94.5 200.499 95.5C198.999 96.5 197.344 97.5694 193.087 101.322C173.829 117.617 160.551 135.491 150.212 158.995C143.016 175.388 138.962 197.904 138.86 222.197C138.759 247.084 126.9 277.796 104.702 310.78C97.3033 321.841 91.4246 328.852 89.7015 328.852C87.6743 328.852 85.1404 325.001 85.9512 323.026C86.2553 322.137 88.4852 318.977 90.8164 316.014C107.439 294.486 123.656 262.983 127.812 244.022C129.535 235.924 131.999 190.5 132.171 189.905C132.342 189.31 132.999 187 132.999 187L133.792 184.671C133.792 184.671 139.975 161.859 144.536 151.489C165.923 104.186 212.75 67.7455 264.038 58.7589C269.105 57.9688 274.072 56.9813 275.288 56.7838C276.403 56.5863 278.329 56.9813 279.545 57.8701Z" fill="url(#paint3_linear_1_71)"/>
<path d="M313.399 78.1147C322.521 79.0035 339.245 83.1512 348.063 86.6076C368.436 94.7055 385.16 105.667 399.959 120.777C410.601 131.541 417.088 140.626 424.285 154.748C427.123 160.377 429.139 163.975 429.499 164.5C429.639 164.975 430.366 166.302 430.569 168.969C430.771 173.413 430.67 173.808 428.238 174.4C425.704 174.993 422.663 173.512 422.663 171.635C422.663 169.463 415.365 154.649 410.5 147.144C403.608 136.182 399.553 131.245 389.519 121.764C372.592 105.766 351.611 94.508 327.69 88.6815C319.784 86.7064 316.237 86.4101 296.472 86.4101C275.187 86.4101 273.666 86.5089 263.531 89.1752C251.57 92.3354 237.279 98.0631 228.157 103.198C220.859 107.346 207.277 117.222 203.831 120.875C200.182 124.628 194.607 123.937 194.607 119.69C194.607 117.715 204.033 109.42 213.865 102.803C243.259 83.0525 278.025 74.4608 313.399 78.1147Z" fill="url(#paint4_linear_1_71)"/>
<path d="M306.912 99.9395C312.689 100.335 318.061 101.125 318.872 101.816C319.683 102.507 320.291 104.186 320.089 105.568L319.785 108.136L302.554 107.741C282.383 107.346 273.058 108.531 259.476 113.074C228.157 123.542 203.932 144.576 191.262 172.326C184.776 186.745 183.052 195.336 181.431 222.197C180.417 239.48 176.768 260.317 174.234 263.279C172.714 265.057 169.876 265.057 168.254 263.181C167.139 261.897 167.241 260.317 168.66 254.49C171.599 242.442 173.119 230.295 173.829 214.297C175.146 183.782 184.167 161.068 203.324 139.738C214.372 127.393 230.995 115.839 247.212 109.222C266.876 101.223 284.512 98.4582 306.912 99.9395Z" fill="url(#paint5_linear_1_71)"/>
<path d="M448.813 108.827C454.084 115.641 463.409 131.343 467.362 139.836C478.613 164.031 483.681 187.93 483.681 215.778C483.681 234.739 482.768 240.665 476.788 260.514C474.356 268.908 472.329 276.71 472.329 277.895C472.329 281.253 469.997 283.524 466.551 283.82C463.51 284.018 463.51 284.018 463.713 279.475C463.916 277.006 466.45 267.032 469.389 257.255L474 239.5L474.761 215.285C474.761 190.102 474.558 188.325 469.491 169.364C464.828 152.378 456.517 134.701 445.57 118.703C438.779 108.827 437.563 105.371 440.502 104.285C443.746 103.1 444.962 103.791 448.813 108.827Z" fill="url(#paint6_linear_1_71)"/>
<path d="M339.144 107.05C367.119 117.123 392.864 140.824 404.419 166.895C415.366 191.584 417.697 212.026 412.933 242.64C412.122 247.972 410.805 256.367 410.095 261.304C408.676 271.575 408.169 272.562 404.926 272.562C400.162 272.562 400.061 270.785 403.405 250.836C408.777 219.729 407.865 197.608 400.669 178.746C390.432 152.279 370.667 130.751 345.124 118.308C341.171 116.431 336.306 114.259 334.178 113.666C331.036 112.58 328.4 110.21 328.4 108.235C328.4 107.544 331.542 104.68 332.252 104.778C332.657 104.778 335.698 105.766 339.144 107.05Z" fill="url(#paint7_linear_1_71)"/>
<path d="M313.095 122.554C346.847 128.085 377.255 153.958 387.492 186.152C390.127 194.349 392.256 206.496 392.256 213.31C392.256 217.754 389.621 220.025 386.276 218.346C384.755 217.556 384.249 215.68 383.742 209.162C383.032 201.064 380.498 189.115 379.079 187.14C378.775 186.547 377.559 183.881 376.545 181.214C374.214 174.993 369.957 168.08 363.774 160.377C358.504 153.859 349.077 147.737 349.077 147.737L347.962 146.848C347.962 146.848 335.799 137.269 334.178 137.269C333.772 137.269 331.441 136.38 329.11 135.392C319.379 131.047 312.386 129.961 295.459 129.961C282.789 129.961 277.721 130.356 272.146 131.738C241.334 139.738 218.427 160.476 209.304 188.819C206.162 198.299 204.946 199.978 201.601 198.99C199.675 198.398 199.473 197.805 199.979 193.164C201.196 181.313 212.345 160.97 223.697 149.712C242.753 130.85 267.484 121.27 296.371 121.567C302.554 121.665 310.054 122.06 313.095 122.554Z" fill="url(#paint8_linear_1_71)"/>
<path d="M189.337 131.047C190.553 133.417 190.148 134.306 183.762 143.391C173.728 157.908 166.227 174.894 163.085 190.892C161.97 196.225 160.653 208.668 160.146 218.544C158.828 243.232 155.483 259.527 147.983 278.784C141.901 294.288 129.738 314.335 116.663 330.334C113.521 334.086 111.088 337.543 111.19 337.938C111.697 339.222 106.021 337.049 105.007 335.469C103.689 333.494 104.196 332.605 112.609 321.841C130.752 298.633 139.469 281.944 145.854 258.638C149.909 243.528 151.125 235.431 152.037 216.766C153.253 191.584 157.206 175.092 166.531 156.032C170.18 148.625 177.883 136.676 182.141 131.936C184.776 128.973 188.019 128.578 189.337 131.047Z" fill="url(#paint9_linear_1_71)"/>
<path d="M309.041 144.28C316.136 145.663 323.028 148.132 329.211 151.489C333.671 153.958 334.988 155.143 334.988 156.921C334.988 161.464 332.15 161.76 324.042 157.81C302.858 147.638 276.403 149.317 256.841 162.254C238.901 174.005 229.88 190.399 226.636 217.26C221.67 256.762 217.007 276.414 206.162 303.67C200.891 316.804 190.452 336.654 188.424 337.246C186.296 337.938 183.762 336.95 183.052 335.173C182.748 334.481 185.789 327.173 189.945 319.174C197.141 304.657 204.743 285.104 208.595 270.587C209.71 266.538 210.926 262.489 211.23 261.699C212.446 258.737 215.994 236.122 217.92 219.531C220.251 199.188 223.292 189.51 231.299 177.067C242.347 159.785 261.2 147.342 280.762 144.28C288.465 142.996 302.655 142.996 309.041 144.28Z" fill="url(#paint10_linear_1_71)"/>
<path d="M349.178 166.599C358.604 175.882 366.105 190.794 368.639 205.113C370.159 213.803 370.058 215.976 368.335 237.307C364.179 286.882 366.612 329.741 375.329 361.441C377.052 367.663 378.471 374.576 378.471 376.748C378.572 380.303 378.268 380.698 375.937 380.995C374.518 381.192 372.896 380.698 372.389 380.007C369.45 376.254 361.949 342.579 359.821 323.915C357.591 305.349 357.388 268.711 359.314 247.38C361.442 222.198 361.544 209.754 359.415 201.064C357.287 192.472 351.104 180.819 344.617 173.512C340.563 168.87 339.752 167.389 340.461 165.611C341.779 162.056 344.921 162.451 349.178 166.599Z" fill="url(#paint11_linear_1_71)"/>
<path d="M309.244 166.895C321.204 170.45 330.529 177.067 336.813 186.35C346.847 201.064 347.354 204.718 345.732 249.651C344.313 289.647 345.124 308.904 349.179 334.975C350.598 343.468 351.408 351.171 351.104 351.961C349.787 355.22 344.313 354.43 343.198 350.875C342.084 347.319 338.435 317.101 337.32 302.189C336.509 290.733 336.61 277.994 337.522 251.33C338.941 212.026 338.536 206.496 333.671 196.62C329.819 189.016 320.596 180.227 312.386 176.474C306.101 173.512 304.784 173.314 294.851 173.314C284.613 173.314 283.904 173.413 276.505 176.968C267.484 181.313 258.058 190.399 254.307 198.398C251.773 203.73 248.53 205.607 245.793 203.434C243.563 201.657 243.868 199.879 247.719 193.164C258.058 175.19 275.998 164.624 295.357 165.019C299.919 165.117 306.203 165.907 309.244 166.895Z" fill="url(#paint12_linear_1_71)"/>
<path d="M434.218 185.955C436.651 187.633 437.867 197.015 437.766 213.803C437.766 227.728 436.752 236.714 432.9 257.749C427.833 285.005 427.833 307.126 433.002 331.321C435.738 344.061 435.84 348.504 433.509 349.986C430.366 351.961 428.441 349.492 426.515 341.098C422.562 324.013 421.244 311.867 421.244 293.794C421.346 276.216 421.65 273.155 426.718 245.405C429.556 229.703 430.366 210.643 428.846 197.509C427.63 188.028 427.731 187.14 429.353 185.955C431.583 184.375 431.988 184.375 434.218 185.955Z" fill="url(#paint13_linear_1_71)"/>
<path d="M301.946 185.658C311.98 187.732 321.913 196.423 325.765 206.594C328.299 213.112 328.501 228.419 326.576 251.33C325.765 260.02 325.157 275.92 325.157 286.684C325.157 302.386 324.853 306.534 323.636 307.719C321.812 309.398 319.886 309.496 318.467 307.818C315.832 304.559 316.237 269.501 319.379 235.727C320.9 219.531 319.987 211.532 315.528 204.619C310.054 195.929 299.209 191.386 289.174 193.559C277.113 196.225 270.93 207.384 268.599 230.592C266.268 253.305 259.578 284.413 253.192 301.497C250.861 307.818 250.456 308.213 246.401 308.509C243.766 308.706 243.563 308.509 243.766 305.151C243.969 303.275 244.78 300.115 245.59 298.14C247.922 293.103 252.99 273.846 255.524 261.206C258.97 243.825 259.274 241.948 260.389 229.999C262.821 206.298 269.207 193.262 281.066 187.831C286.336 185.362 295.763 184.473 301.946 185.658Z" fill="url(#paint14_linear_1_71)"/>
<path d="M303.466 207.681C305.392 209.458 307.318 212.125 307.622 213.606C308.534 216.865 307.723 231.382 306.203 241.948C302.757 265.353 303.162 307.916 307.014 333.099C309.649 350.084 309.649 349.393 306.608 350.776C304.48 351.665 303.669 351.665 302.554 350.479C301.034 348.998 298.702 336.456 296.777 318.977C295.459 306.929 295.459 261.897 296.878 250.342C300.02 222.494 300.426 217.359 299.209 214.89C297.79 211.73 294.547 211.532 292.52 214.495C291.709 215.778 290.492 221.21 289.884 226.641C288.06 243.133 284.816 261.008 283.195 263.378C281.472 266.044 279.546 266.242 277.62 264.069C276.606 262.786 276.809 259.527 279.039 245.109C280.458 235.529 281.877 224.765 282.181 221.407C283.195 210.248 287.959 204.422 296.169 204.422C299.007 204.422 300.73 205.212 303.466 207.681Z" fill="url(#paint15_linear_1_71)"/>
<path d="M203.425 209.063C206.061 210.051 204.642 227.036 200.08 248.96C191.668 290.536 174.944 325.988 150.415 354.528C140.482 366.083 127.812 378.23 125.684 378.23C123.656 378.23 121.629 376.353 121.629 374.477C121.629 373.687 126.494 368.157 132.373 362.133C153.152 340.802 168.457 317.693 179.302 291.227C186.701 272.859 193.999 243.133 195.823 223.679C196.432 216.569 197.445 210.248 197.952 209.557C198.966 208.372 201.195 208.076 203.425 209.063Z" fill="url(#paint16_linear_1_71)"/>
<path d="M248.125 213.013C249.341 215.285 245.489 244.812 241.739 261.996C235.151 292.511 227.346 312.854 210.926 341.592C202.007 357.096 178.5 387 178.5 387L176.5 389.5C176.5 389.5 173.389 392.329 173 393C172.611 393.671 149.5 415.5 149.5 415.5L148 416.5C148 416.5 145.348 417.731 141.496 421.089C134.604 427.014 131.563 427.903 129.738 424.545C128.218 421.78 129.029 420.793 142.408 409.535C161.261 393.734 182 368.5 182 368.5L183 367.5C183 367.5 184.269 366.873 185.587 365.095C198.662 348.011 213.359 322.236 220.657 303.769C229.678 280.858 233.022 267.328 237.685 236.221C239.611 223.58 241.435 212.816 241.739 212.322C242.753 210.742 247.212 211.236 248.125 213.013Z" fill="url(#paint17_linear_1_71)"/>
<path d="M389.62 231.678C391.648 233.554 391.648 232.27 389.012 249.059C385.769 269.501 385.87 303.374 389.012 324.408C391.952 342.875 396.006 359.861 401.986 377.439C405.635 388.5 406.345 391.463 405.432 393.141C404.723 394.425 403.507 395.018 402.088 394.82C399.148 394.425 396.513 388.796 391.952 373.687C382.728 343.172 378.978 320.656 378.37 290.832C377.964 272.266 378.167 268.118 380.6 251.33C382.525 237.307 383.64 232.27 384.857 231.283C387.087 229.703 387.695 229.802 389.62 231.678Z" fill="url(#paint18_linear_1_71)"/>
<path d="M279.241 274.932C281.066 276.216 281.167 276.71 279.951 282.536C277.518 294.189 270.626 315.718 264.443 331.124C246.908 374.279 203.628 428.199 163.896 456.443C160.146 459.109 157.612 462.171 157.612 462.171C157.612 462.171 156.699 462.665 154.875 462.171C151.936 461.282 150.111 459.702 150.01 458.023C150.01 457.134 152.544 454.764 156.902 451.505C174.336 438.964 191.161 423.558 204.743 407.757C227.346 381.488 244.881 355.615 252.888 336.753C254.409 333.197 256.436 328.556 257.449 326.383C261.808 316.607 268.903 293.992 271.538 281.549C273.261 273.649 275.187 271.97 279.241 274.932Z" fill="url(#paint19_linear_1_71)"/>
<path d="M169.268 276.019C170.687 277.698 169.876 280.463 163.592 294.585C156.598 310.385 147.476 324.211 130.448 344.949C125.887 350.48 122.238 355.319 122.339 355.714C122.948 357.491 116.765 353.146 115.751 350.973C115.042 349.591 114.94 348.702 115.346 348.998C115.852 349.295 119.4 345.641 123.252 340.9C140.584 319.767 150.112 305.053 157.105 288.561C159.436 283.327 161.666 277.994 162.173 276.71C163.288 274.142 167.342 273.747 169.268 276.019Z" fill="url(#paint20_linear_1_71)"/>
<path d="M103.081 276.117C104.094 278.784 101.155 284.018 88.2825 301.892C81.3901 311.57 78.8562 313.15 76.2209 309.101C74.7005 306.731 75.0046 306.04 82.0997 296.757C85.039 292.906 89.4988 286.388 91.9314 282.141C95.9857 275.426 96.8979 274.537 99.5333 274.537C101.256 274.537 102.675 275.13 103.081 276.117Z" fill="url(#paint21_linear_1_71)"/>
<path d="M406.344 283.722C406.953 284.512 407.865 292.609 408.372 301.794C409.689 322.927 412.933 341.789 419.014 362.429C421.143 369.539 421.041 372.008 418.71 373.292C414.96 375.168 412.933 371.811 409.183 357.491C407.155 350.183 404.824 339.715 403.912 334.383C403 328.951 402.087 324.31 401.885 323.915C401.682 323.618 400.973 315.027 400.263 304.855C399.148 287.474 399.148 286.19 400.871 284.413C403 282.141 404.723 281.944 406.344 283.722Z" fill="url(#paint22_linear_1_71)"/>
<path d="M323.94 317.989C325.765 318.681 326.17 320.359 327.792 333.395C328.805 341.493 330.022 348.801 330.427 349.591C330.832 350.381 331.441 353.442 331.846 356.405C333.366 368.157 340.968 393.141 350.192 417.238C360.328 443.506 384.755 485.477 405.229 511.844C408.169 515.597 410.5 519.646 410.5 520.93C410.5 523.497 407.865 524.88 405.027 523.794C403.304 523.102 391.647 507.894 383.741 495.945C380.903 491.698 379.499 490.5 379.499 490.5L377.499 488C377.499 488 375.227 482.909 371.376 476.688C364.483 465.528 351.51 441.235 348.469 434.026C347.557 431.853 345.732 427.607 344.313 424.644C340.968 417.336 332.252 392.055 328.501 378.723C325.562 368.552 320.291 340.308 318.771 327.667C317.757 319.076 319.278 316.31 323.94 317.989Z" fill="url(#paint23_linear_1_71)"/>
<path d="M243.766 319.964C245.59 321.841 245.489 322.236 239.813 333.494C231.096 350.875 217.818 371.415 203.932 389.093C200.283 393.635 197.344 398.672 197.344 398.672L196.533 399.462C196.533 399.462 192.681 402.326 188.931 406.473C176.565 419.904 142.712 448.345 139.063 448.345C136.225 448.345 134.299 445.778 135.414 443.506C135.921 442.42 139.772 438.865 143.928 435.507C161.666 421.286 164.808 418.62 177.173 406.375C196.938 386.92 216.703 359.861 230.184 333.988C234.035 326.581 237.684 319.866 238.191 319.174C239.711 317.397 241.637 317.693 243.766 319.964Z" fill="url(#paint24_linear_1_71)"/>
<path d="M284.005 328.556C284.917 329.642 286.032 334.481 286.741 341.197C289.782 367.367 298.094 397.092 313.196 435.013C323.129 460.196 339.346 493.772 349.583 510.758C355.057 519.646 355.564 521.226 353.536 523.201C351.408 525.275 348.874 524.485 346.34 521.226C340.765 513.721 324.345 482.119 314.311 459.208C312.486 455.159 310.358 450.419 309.648 448.839C308.027 445.383 299.208 422.175 294.445 408.843C286.843 387.809 277.822 347.122 277.721 333.593C277.721 329.939 278.126 328.655 279.646 327.865C282.18 326.581 282.18 326.581 284.005 328.556Z" fill="url(#paint25_linear_1_71)"/>
<path d="M180.721 344.357C183.66 347.221 177.579 356.405 160.652 374.773C151.834 384.254 133.387 399.956 130.954 399.956C128.724 399.956 126.697 398.079 126.697 396.005C126.697 395.215 130.143 391.561 134.4 388.105C145.144 379.217 160.956 362.923 168.963 352.455C173.829 346.134 176.261 343.665 177.883 343.665C179.099 343.665 180.417 343.962 180.721 344.357Z" fill="url(#paint26_linear_1_71)"/>
<path d="M310.459 360.849C311.169 361.639 313.5 368.947 315.629 377.242C326.17 419.311 344.718 459.603 376.241 509.277C382.221 518.757 383.133 520.633 382.12 522.312C381.511 523.497 379.991 524.386 378.673 524.386C376.646 524.386 374.822 522.214 368.234 511.844C340.259 467.997 322.217 430.174 310.764 391.561C305.594 373.687 303.466 362.824 305.087 360.947C306.709 359.071 308.534 359.071 310.459 360.849Z" fill="url(#paint27_linear_1_71)"/>
<path d="M270.93 365.589C271.842 368.453 275.086 380.995 278.228 393.339C283.6 414.67 290.898 438.568 294.952 448.345C295.966 450.814 298.5 456.937 300.527 461.973C305.899 475.404 316.643 497.426 325.866 514.017C329.515 520.535 329.312 524.386 325.359 524.386C322.521 524.386 320.697 522.016 314.413 510.363C293.837 471.947 281.471 439.852 269.815 394.228C267.281 384.352 264.95 376.254 264.646 376.254C264.342 376.254 262.213 379.316 259.983 382.97C249.239 400.647 234.441 420.003 221.67 433.236C217.818 437.186 215.386 441.432 215.386 441.432L215 442C215 442 209.203 446.963 203.223 453.085C192.175 464.343 189.337 466.022 186.499 462.665C184.573 460.393 185.688 458.813 200.283 443.802C229.373 413.781 240.421 399.758 258.463 369.539C263.227 361.639 264.342 360.454 266.673 360.454C269.207 360.454 269.612 361.046 270.93 365.589Z" fill="url(#paint28_linear_1_71)"/>
<path d="M354.872 363.907C355.48 364.894 356.19 367.264 356.595 369.141C358.521 378.325 369.873 409.334 376.968 424.739C388.422 449.428 415.383 490.312 435.553 513.223C440.317 518.754 441.128 520.926 438.999 523C436.871 525.074 434.641 524.284 430.992 520.432C421.262 510.458 400.179 481.523 386.597 459.501C382.543 452.983 379.499 450 378.999 449C378.499 448 377.499 446.5 377.499 446.5C377.499 446.5 375.651 440.935 372.407 434.121C362.17 413.185 347.98 373.98 347.98 366.77C347.98 362.228 352.946 360.253 354.872 363.907Z" fill="url(#paint29_linear_1_71)"/>
<path d="M383.944 390.278C384.654 390.969 385.16 391.956 385.16 392.549C385.16 394.722 392.56 411.51 398.438 422.768C403.81 433.038 415.061 450.518 422.055 459.406C425.096 463.356 425.298 464.837 423.068 467.207C420.636 469.775 418.507 468.294 412.223 459.899C399.655 443.21 388.505 423.558 380.093 403.214C376.748 395.018 376.14 392.648 377.052 391.068C378.268 388.895 382.018 388.401 383.944 390.278Z" fill="url(#paint30_linear_1_71)"/>
<path d="M262.214 413.979C262.72 414.67 263.734 417.238 264.443 419.706C273.87 453.283 285.222 482.317 300.121 510.659C304.379 518.757 304.987 520.732 304.074 522.411C302.96 524.386 300.426 524.979 298.398 523.596C296.371 522.312 285.019 499.994 276.404 480.44C271.437 469.182 261.605 440.346 258.869 429.286C258.565 427.804 257.855 426.619 257.45 426.817C257.044 427.014 253.193 431.557 248.834 436.988C236.165 452.888 226.13 463.158 223.393 463.158C221.366 463.158 218.934 460.788 218.934 458.813C218.934 458.517 222.684 454.27 227.346 449.333C232.009 444.494 240.523 434.223 246.402 426.619C256.943 412.794 259.578 410.72 262.214 413.979Z" fill="url(#paint31_linear_1_71)"/>
<path d="M253.193 455.06C254.409 456.048 257.551 464.047 261.403 475.601C265.558 488.044 269.917 498.907 274.376 507.598C279.546 517.671 280.863 521.028 280.052 522.312C278.633 524.386 275.998 524.88 273.971 523.3C272.248 521.818 262.923 503.944 259.882 496.142C257.247 489.23 256.5 488.5 256.5 488.5C256.5 488.5 255.584 486.338 255.5 486C255.416 485.662 251.368 470.762 249.544 467.8C249.341 467.306 246.908 468.985 244.273 471.552C240.523 475.206 239.002 476.095 237.279 475.503C233.326 474.318 234.644 470.17 241.536 462.368C249.24 453.48 250.456 452.69 253.193 455.06Z" fill="url(#paint32_linear_1_71)"/>
<path d="M250.658 504.141C251.469 504.931 253.598 508.882 255.321 513.029C257.956 519.053 258.362 520.831 257.449 522.51C256.638 523.892 255.523 524.386 253.699 524.189C251.469 523.991 250.557 522.806 248.023 516.98C244.07 507.697 243.766 506.215 245.793 504.339C247.82 502.265 248.732 502.265 250.658 504.141Z" fill="url(#paint33_linear_1_71)"/>
</g>
</g>
<defs>
<filter id="filter0_i_1_71" x="0" y="0" width="569.633" height="559" filterUnits="userSpaceOnUse" color-interpolation-filters="sRGB">
<feFlood flood-opacity="0" result="BackgroundImageFix"/>
<feBlend mode="normal" in="SourceGraphic" in2="BackgroundImageFix" result="shape"/>
<feColorMatrix in="SourceAlpha" type="matrix" values="0 0 0 0 0 0 0 0 0 0 0 0 0 0 0 0 0 0 127 0" result="hardAlpha"/>
<feOffset dy="4"/>
<feGaussianBlur stdDeviation="2"/>
<feComposite in2="hardAlpha" operator="arithmetic" k2="-1" k3="1"/>
<feColorMatrix type="matrix" values="0 0 0 0 0 0 0 0 0 0 0 0 0 0 0 0 0 0 0.25 0"/>
<feBlend mode="normal" in2="shape" result="effect1_innerShadow_1_71"/>
</filter>
<filter id="filter1_i_1_71" x="0" y="0" width="569.633" height="559" filterUnits="userSpaceOnUse" color-interpolation-filters="sRGB">
<feFlood flood-opacity="0" result="BackgroundImageFix"/>
<feBlend mode="normal" in="SourceGraphic" in2="BackgroundImageFix" result="shape"/>
<feColorMatrix in="SourceAlpha" type="matrix" values="0 0 0 0 0 0 0 0 0 0 0 0 0 0 0 0 0 0 127 0" result="hardAlpha"/>
<feOffset dy="4"/>
<feGaussianBlur stdDeviation="2"/>
<feComposite in2="hardAlpha" operator="arithmetic" k2="-1" k3="1"/>
<feColorMatrix type="matrix" values="0 0 0 0 0 0 0 0 0 0 0 0 0 0 0 0 0 0 0.25 0"/>
<feBlend mode="normal" in2="shape" result="effect1_innerShadow_1_71"/>
</filter>
<linearGradient id="paint0_linear_1_71" x1="335.037" y1="97.1046" x2="335.037" y2="33.6727" gradientUnits="userSpaceOnUse">
<stop stop-color="#666666"/>
<stop offset="0.939" stop-color="white"/>
<stop offset="1" stop-color="#666666"/>
</linearGradient>
<linearGradient id="paint1_linear_1_71" x1="167.58" y1="219.235" x2="167.58" y2="50.5724" gradientUnits="userSpaceOnUse">
<stop stop-color="#666666"/>
<stop offset="0.939" stop-color="white"/>
<stop offset="1" stop-color="#666666"/>
</linearGradient>
<linearGradient id="paint2_linear_1_71" x1="377.137" y1="323.698" x2="377.137" y2="55.3816" gradientUnits="userSpaceOnUse">
<stop stop-color="#666666"/>
<stop offset="0.939" stop-color="white"/>
<stop offset="1" stop-color="#666666"/>
</linearGradient>
<linearGradient id="paint3_linear_1_71" x1="183.796" y1="328.852" x2="183.796" y2="56.7339" gradientUnits="userSpaceOnUse">
<stop stop-color="#666666"/>
<stop offset="0.939" stop-color="white"/>
<stop offset="1" stop-color="#666666"/>
</linearGradient>
<linearGradient id="paint4_linear_1_71" x1="312.622" y1="174.533" x2="312.622" y2="77.2934" gradientUnits="userSpaceOnUse">
<stop stop-color="#666666"/>
<stop offset="0.939" stop-color="white"/>
<stop offset="1" stop-color="#666666"/>
</linearGradient>
<linearGradient id="paint5_linear_1_71" x1="243.813" y1="264.6" x2="243.813" y2="99.557" gradientUnits="userSpaceOnUse">
<stop offset="0.0189996" stop-color="#666666"/>
<stop offset="1" stop-color="#666666"/>
</linearGradient>
<linearGradient id="paint6_linear_1_71" x1="461.341" y1="283.883" x2="461.341" y2="103.784" gradientUnits="userSpaceOnUse">
<stop stop-color="#666666"/>
<stop offset="0.834" stop-color="white"/>
<stop offset="1" stop-color="#666666"/>
</linearGradient>
<linearGradient id="paint7_linear_1_71" x1="371.839" y1="272.562" x2="371.839" y2="104.776" gradientUnits="userSpaceOnUse">
<stop offset="0.0189996" stop-color="#666666"/>
<stop offset="1" stop-color="#666666"/>
</linearGradient>
<linearGradient id="paint8_linear_1_71" x1="295.999" y1="218.9" x2="295.999" y2="121.56" gradientUnits="userSpaceOnUse">
<stop stop-color="#666666"/>
<stop offset="0.254" stop-color="white"/>
<stop offset="1" stop-color="#666666"/>
</linearGradient>
<linearGradient id="paint9_linear_1_71" x1="147.169" y1="338.327" x2="147.169" y2="129.426" gradientUnits="userSpaceOnUse">
<stop offset="0.0189996" stop-color="#666666"/>
<stop offset="1" stop-color="#666666"/>
</linearGradient>
<linearGradient id="paint10_linear_1_71" x1="259.01" y1="337.468" x2="259.01" y2="143.317" gradientUnits="userSpaceOnUse">
<stop offset="0.0189996" stop-color="#666666"/>
<stop offset="1" stop-color="#666666"/>
</linearGradient>
<linearGradient id="paint11_linear_1_71" x1="359.359" y1="381.039" x2="359.359" y2="163.193" gradientUnits="userSpaceOnUse">
<stop offset="0.0189996" stop-color="#666666"/>
<stop offset="1" stop-color="#666666"/>
</linearGradient>
<linearGradient id="paint12_linear_1_71" x1="297.783" y1="354.021" x2="297.783" y2="165.008" gradientUnits="userSpaceOnUse">
<stop offset="0.0189996" stop-color="#666666"/>
<stop offset="1" stop-color="#666666"/>
</linearGradient>
<linearGradient id="paint13_linear_1_71" x1="429.508" y1="350.629" x2="429.508" y2="184.77" gradientUnits="userSpaceOnUse">
<stop offset="0.0189996" stop-color="#666666"/>
<stop offset="1" stop-color="#666666"/>
</linearGradient>
<linearGradient id="paint14_linear_1_71" x1="285.786" y1="309.028" x2="285.786" y2="185.138" gradientUnits="userSpaceOnUse">
<stop offset="0.0189996" stop-color="#666666"/>
<stop offset="1" stop-color="#666666"/>
</linearGradient>
<linearGradient id="paint15_linear_1_71" x1="292.989" y1="351.409" x2="292.989" y2="204.422" gradientUnits="userSpaceOnUse">
<stop offset="0.0189996" stop-color="#666666"/>
<stop offset="1" stop-color="#666666"/>
</linearGradient>
<linearGradient id="paint16_linear_1_71" x1="163.186" y1="378.23" x2="163.186" y2="208.469" gradientUnits="userSpaceOnUse">
<stop offset="0.0189996" stop-color="#666666"/>
<stop offset="1" stop-color="#666666"/>
</linearGradient>
<linearGradient id="paint17_linear_1_71" x1="188.768" y1="426.49" x2="188.768" y2="211.37" gradientUnits="userSpaceOnUse">
<stop stop-color="#666666"/>
<stop offset="0.834" stop-color="white"/>
<stop offset="1" stop-color="#666666"/>
</linearGradient>
<linearGradient id="paint18_linear_1_71" x1="391.999" y1="394.857" x2="391.999" y2="230.178" gradientUnits="userSpaceOnUse">
<stop offset="0.0189996" stop-color="#666666"/>
<stop offset="1" stop-color="#666666"/>
</linearGradient>
<linearGradient id="paint19_linear_1_71" x1="215.383" y1="462.541" x2="215.383" y2="273.562" gradientUnits="userSpaceOnUse">
<stop stop-color="#666666"/>
<stop offset="0.324" stop-color="white"/>
<stop offset="1" stop-color="#666666"/>
</linearGradient>
<linearGradient id="paint20_linear_1_71" x1="142.487" y1="356.131" x2="142.487" y2="274.527" gradientUnits="userSpaceOnUse">
<stop offset="0.0189996" stop-color="#666666"/>
<stop offset="1" stop-color="#666666"/>
</linearGradient>
<linearGradient id="paint21_linear_1_71" x1="89.3719" y1="311.183" x2="89.3719" y2="274.537" gradientUnits="userSpaceOnUse">
<stop offset="0.0189996" stop-color="#666666"/>
<stop offset="1" stop-color="#666666"/>
</linearGradient>
<linearGradient id="paint22_linear_1_71" x1="410.014" y1="373.767" x2="410.014" y2="282.531" gradientUnits="userSpaceOnUse">
<stop offset="0.0189996" stop-color="#666666"/>
<stop offset="1" stop-color="#666666"/>
</linearGradient>
<linearGradient id="paint23_linear_1_71" x1="364.486" y1="524.167" x2="364.486" y2="317.523" gradientUnits="userSpaceOnUse">
<stop stop-color="#666666"/>
<stop offset="0.939" stop-color="white"/>
<stop offset="1" stop-color="#666666"/>
</linearGradient>
<linearGradient id="paint24_linear_1_71" x1="189.955" y1="448.345" x2="189.955" y2="318.024" gradientUnits="userSpaceOnUse">
<stop stop-color="#666666"/>
<stop offset="0.939" stop-color="white"/>
<stop offset="1" stop-color="#666666"/>
</linearGradient>
<linearGradient id="paint25_linear_1_71" x1="316.175" y1="524.347" x2="316.175" y2="326.974" gradientUnits="userSpaceOnUse">
<stop offset="0.0189996" stop-color="#666666"/>
<stop offset="1" stop-color="#666666"/>
</linearGradient>
<linearGradient id="paint26_linear_1_71" x1="154.064" y1="399.956" x2="154.064" y2="343.665" gradientUnits="userSpaceOnUse">
<stop offset="0.0189996" stop-color="#666666"/>
<stop offset="1" stop-color="#666666"/>
</linearGradient>
<linearGradient id="paint27_linear_1_71" x1="343.515" y1="524.386" x2="343.515" y2="359.528" gradientUnits="userSpaceOnUse">
<stop offset="0.0189996" stop-color="#666666"/>
<stop offset="1" stop-color="#666666"/>
</linearGradient>
<linearGradient id="paint28_linear_1_71" x1="257.125" y1="524.386" x2="257.125" y2="360.454" gradientUnits="userSpaceOnUse">
<stop stop-color="#666666"/>
<stop offset="0.939" stop-color="white"/>
<stop offset="1" stop-color="#666666"/>
</linearGradient>
<linearGradient id="paint29_linear_1_71" x1="393.724" y1="524.318" x2="393.724" y2="362.207" gradientUnits="userSpaceOnUse">
<stop stop-color="#666666"/>
<stop offset="0.799" stop-color="white"/>
<stop offset="1" stop-color="#666666"/>
</linearGradient>
<linearGradient id="paint30_linear_1_71" x1="400.617" y1="468.35" x2="400.617" y2="389.116" gradientUnits="userSpaceOnUse">
<stop offset="0.0189996" stop-color="#666666"/>
<stop offset="1" stop-color="#666666"/>
</linearGradient>
<linearGradient id="paint31_linear_1_71" x1="261.687" y1="524.35" x2="261.687" y2="412.631" gradientUnits="userSpaceOnUse">
<stop offset="0.0189996" stop-color="#666666"/>
<stop offset="1" stop-color="#666666"/>
</linearGradient>
<linearGradient id="paint32_linear_1_71" x1="257.673" y1="524.232" x2="257.673" y2="453.914" gradientUnits="userSpaceOnUse">
<stop stop-color="#666666"/>
<stop offset="0.939" stop-color="white"/>
<stop offset="1" stop-color="#666666"/>
</linearGradient>
<linearGradient id="paint33_linear_1_71" x1="251.227" y1="524.23" x2="251.227" y2="502.758" gradientUnits="userSpaceOnUse">
<stop offset="0.0189996" stop-color="#666666"/>
<stop offset="1" stop-color="#666666"/>
</linearGradient>
</defs>
</svg>
