<svg width="131" height="261" viewBox="0 0 131 261" fill="none" xmlns="http://www.w3.org/2000/svg">
<path d="M0 8C0 12.4183 3.58172 16 8 16C12.4183 16 16 12.4183 16 8C16 3.58172 12.4183 0 8 0C3.58172 0 0 3.58172 0 8ZM123 9.5C123.828 9.5 124.5 8.82843 124.5 8C124.5 7.17157 123.828 6.5 123 6.5V9.5ZM8 8V9.5L123 9.5V8V6.5L8 6.5V8Z" fill="#666666"/>
<path d="M124.5 8C124.5 7.17157 123.828 6.5 123 6.5C122.172 6.5 121.5 7.17157 121.5 8H124.5ZM123 245C118.582 245 115 248.582 115 253C115 257.418 118.582 261 123 261C127.418 261 131 257.418 131 253C131 248.582 127.418 245 123 245ZM123 8H121.5L121.5 253H123H124.5L124.5 8H123Z" fill="#666666"/>
</svg>
