<?xml version="1.0" encoding="UTF-8"?>
<svg id="_Слой_1" data-name="Слой_1" xmlns="http://www.w3.org/2000/svg" version="1.1" xmlns:xlink="http://www.w3.org/1999/xlink" viewBox="0 0 1091 101">
  <!-- Generator: Adobe Illustrator 29.5.0, SVG Export Plug-In . SVG Version: 2.1.0 Build 137)  -->
  <defs>
    <style>
      .st0 {
        fill: #fff;
      }

      .st1 {
        mask: url(#mask);
      }

      .st2 {
        fill: #666;
      }
    </style>
    <mask id="mask" x="36.9" y="0" width="1096" height="101" maskUnits="userSpaceOnUse">
      <g id="path-1-inside-1_1_118">
        <path class="st0" d="M41.9,50.5C41.9,22.6,64.5,0,92.4,0h990C1110.3,0,1132.9,22.6,1132.9,50.5h0c0,27.9-22.6,50.5-50.5,50.5H92.4c-27.9,0-50.5-22.6-50.5-50.5h0Z"/>
      </g>
    </mask>
  </defs>
  <g class="st1">
    <path class="st2" d="M41.9,0,41.9,101,87.4,101c-27.9,0-50.5-22.6-50.5-50.5S59.5,0,87.4,0h5C67.3,0,46.9,22.6,46.9,50.5s20.4,50.5,45.5,50.5h-5Z"/>
  </g>
</svg>