<svg width="1440" height="65" viewBox="0 0 1440 65" fill="none" xmlns="http://www.w3.org/2000/svg">
<path d="M-2 0H1364L1443 65H-2V0Z" fill="url(#paint0_linear_2006_53)"/>
<path d="M141 24C141 28.4183 144.582 32 149 32C153.418 32 157 28.4183 157 24C157 19.5817 153.418 16 149 16C144.582 16 141 19.5817 141 24ZM289.273 24C289.273 28.4183 292.855 32 297.273 32C301.692 32 305.273 28.4183 305.273 24C305.273 19.5817 301.692 16 297.273 16C292.855 16 289.273 19.5817 289.273 24ZM149 24V25.5H297.273V24V22.5H149V24Z" fill="#666666"/>
<path d="M81 47C81 51.4183 84.5817 55 89 55C93.4183 55 97 51.4183 97 47C97 42.5817 93.4183 39 89 39C84.5817 39 81 42.5817 81 47ZM229.273 47C229.273 51.4183 232.855 55 237.273 55C241.692 55 245.273 51.4183 245.273 47C245.273 42.5817 241.692 39 237.273 39C232.855 39 229.273 42.5817 229.273 47ZM89 47V48.5H237.273V47V45.5H89V47Z" fill="#666666"/>
<defs>
<linearGradient id="paint0_linear_2006_53" x1="-2" y1="32.5" x2="1443" y2="32.5" gradientUnits="userSpaceOnUse">
<stop stop-color="#D9D9D9"/>
<stop offset="1" stop-color="#737373"/>
</linearGradient>
</defs>
</svg>
