<svg width="576" height="386" viewBox="0 0 576 386" fill="none" xmlns="http://www.w3.org/2000/svg">
<mask id="path-1-inside-1_2003_6" fill="white">
<path d="M0 193C0 244.187 30.3428 293.277 84.3532 329.472C138.364 365.666 211.618 386 288 386C364.382 386 437.636 365.666 491.647 329.472C545.657 293.277 576 244.187 576 193L288 193L0 193Z"/>
</mask>
<path d="M0 193C0 244.187 30.3428 293.277 84.3532 329.472C138.364 365.666 211.618 386 288 386C364.382 386 437.636 365.666 491.647 329.472C545.657 293.277 576 244.187 576 193L288 193L0 193Z" stroke="#666666" stroke-width="6" mask="url(#path-1-inside-1_2003_6)"/>
<path d="M274 192.5C274 224.724 289.909 255.628 318.227 278.413C346.545 301.199 384.952 314 425 314C465.048 314 503.455 301.199 531.773 278.413C560.091 255.628 576 224.724 576 192.5L425 192.5L274 192.5Z" fill="#666666"/>
</svg>
