<svg width="1634" height="757" viewBox="0 0 1634 757" fill="none"
    xmlns="http://www.w3.org/2000/svg">
    <g filter="url(#filter0_f_1_3)">
        <path
            d="M-75.9033 139.736C162.254 96.2582 400.024 50.2615 640.725 12.7131C663.462 9.1663 686.343 5.96868 709.355 3.25544C718.168 2.21633 730.678 -1.39088 736.211 3.0326C742.383 7.9664 625.693 70.2964 621.236 72.7218C501.729 137.752 377.939 200.469 263.713 269.253C228.589 290.404 193.369 312.601 164.652 337.428C160.449 341.061 132.408 364.798 160.16 360.574C305.312 338.48 443.837 301.751 590.488 281.553C719.05 263.846 852.261 244.629 983.635 237.998C1023.38 235.991 1024.69 244.415 993.814 260.43C904.648 306.68 787.01 334.067 686.148 368.061C568.399 407.746 445.199 446.995 341.525 500.885C316.644 513.819 289.114 527.929 269.745 544.539C259.67 553.179 303.696 548.411 320.355 546.489C574.448 517.178 827.675 492.473 1084.61 475.561C1239.09 465.392 1396.41 451.049 1551.92 449.759C1577.85 449.544 1541.73 472.774 1536.84 476.944C1480.18 525.248 1402.04 563.33 1322.02 595.062C1184.26 649.688 1045.68 703.505 907.368 757.305"
            stroke="#D2F091" stroke-width="50" stroke-linecap="round" />
    </g>
    <defs>
        <filter id="filter0_f_1_3" x="-358.707" y="-281.917" width="2202.71" height="1322.03"
            filterUnits="userSpaceOnUse" color-interpolation-filters="sRGB">
            <feFlood flood-opacity="0" result="BackgroundImageFix" />
            <feBlend mode="normal" in="SourceGraphic" in2="BackgroundImageFix" result="shape" />
            <feGaussianBlur stdDeviation="128.9" result="effect1_foregroundBlur_1_3" />
        </filter>
    </defs>
</svg>
    