<svg width="111" height="79" viewBox="0 0 111 79" fill="none" xmlns="http://www.w3.org/2000/svg">
<path d="M1.33282 75.4214C3.77469 79.1036 8.73921 80.109 12.4214 77.6672C16.1036 75.2253 17.109 70.2608 14.6672 66.5786C12.2253 62.8964 7.26079 61.891 3.57861 64.3328C-0.103576 66.7747 -1.10905 71.7392 1.33282 75.4214ZM96.3328 12.4214C98.7747 16.1036 103.739 17.109 107.421 14.6672C111.104 12.2253 112.109 7.26079 109.667 3.5786C107.225 -0.103578 102.261 -1.10905 98.5786 1.33282C94.8964 3.77468 93.891 8.73921 96.3328 12.4214ZM8 71L8.82901 72.2501L103.829 9.25009L103 8L102.171 6.7499L7.17099 69.7499L8 71Z" fill="#666666"/>
</svg>
