<svg width="98" height="70" viewBox="0 0 98 70" fill="none" xmlns="http://www.w3.org/2000/svg">
<path d="M1.31863 66.3999C3.74864 70.0899 8.70991 71.1114 12.3999 68.6814C16.0899 66.2514 17.1114 61.2901 14.6814 57.6001C12.2514 53.9101 7.29009 52.8886 3.60008 55.3186C-0.0899413 57.7486 -1.11138 62.7099 1.31863 66.3999ZM83.3186 12.3999C85.7486 16.09 90.7099 17.1114 94.3999 14.6814C98.0899 12.2514 99.1114 7.29011 96.6814 3.60009C94.2514 -0.0899239 89.2901 -1.11136 85.6001 1.31865C81.91 3.74866 80.8886 8.70992 83.3186 12.3999ZM8 62L8.82499 63.2528L90.825 9.25277L90 8.00002L89.175 6.74726L7.17501 60.7472L8 62Z" fill="#666666"/>
</svg>
