<svg width="99" height="81" viewBox="0 0 99 81" fill="none" xmlns="http://www.w3.org/2000/svg">
<path d="M1.70156 3.06749C-1.02259 6.54602 -0.411043 11.5743 3.06749 14.2984C6.54602 17.0226 11.5743 16.411 14.2984 12.9325C17.0226 9.45398 16.411 4.42571 12.9325 1.70156C9.45398 -1.02259 4.42571 -0.411043 1.70156 3.06749ZM84.7016 68.0675C81.9774 71.546 82.5889 76.5743 86.0675 79.2984C89.546 82.0226 94.5743 81.411 97.2984 77.9325C100.023 74.454 99.411 69.4257 95.9325 66.7016C92.454 63.9774 87.4257 64.589 84.7016 68.0675ZM8 8L7.07515 9.18096L90.0751 74.181L91 73L91.9248 71.819L8.92485 6.81904L8 8Z" fill="#666666"/>
</svg>
