<svg width="355" height="363" viewBox="0 0 355 363" fill="none" xmlns="http://www.w3.org/2000/svg">
<g filter="url(#filter0_f_1_54)">
<path d="M115.358 118.227C137.806 117.144 160.345 115.629 182.719 115.608C184.832 115.606 186.941 115.667 189.037 115.812C189.839 115.868 191.084 115.589 191.338 116.476C191.621 117.466 178.602 124.887 178.103 125.177C164.711 132.978 151.068 140.278 137.942 148.847C133.905 151.482 129.81 154.29 126.139 157.71C125.601 158.21 122.042 161.465 124.616 161.48C138.081 161.56 151.702 159.009 165.201 159.447C177.035 159.83 189.341 160.081 200.87 162.398C204.358 163.1 204.055 164.548 200.633 166.432C190.753 171.871 179.374 173.398 169.1 176.473C157.106 180.063 144.668 183.438 133.175 189.781C130.416 191.303 127.374 192.954 124.905 195.238C123.62 196.425 127.609 196.775 129.124 196.887C152.234 198.6 175.044 201.063 197.786 204.933C211.459 207.259 225.58 208.959 238.904 212.803C241.127 213.444 236.903 216.402 236.28 216.975C229.071 223.608 220.533 227.963 212.147 231.202C197.712 236.779 183.245 242.198 168.803 247.622" stroke="#D2F091" stroke-width="50" stroke-linecap="round"/>
</g>
<defs>
<filter id="filter0_f_1_54" x="0.357422" y="0.608154" width="354.18" height="362.02" filterUnits="userSpaceOnUse" color-interpolation-filters="sRGB">
<feFlood flood-opacity="0" result="BackgroundImageFix"/>
<feBlend mode="normal" in="SourceGraphic" in2="BackgroundImageFix" result="shape"/>
<feGaussianBlur stdDeviation="45" result="effect1_foregroundBlur_1_54"/>
</filter>
</defs>
</svg>
